<svg xmlns="http://www.w3.org/2000/svg" viewBox="0 0 64 64"><g id="_24-Crowns" data-name="24-Crowns"><rect x="11" y="48" width="42" height="6" rx="2" style="fill:#fadf7d"/><path d="M51,52H13a2.006,2.006,0,0,1-2-2v2a2.006,2.006,0,0,0,2,2H51a2.006,2.006,0,0,0,2-2V50A2.006,2.006,0,0,1,51,52Z" style="fill:#ffbf40"/><path d="M7.19,21.35A4,4,0,1,1,9,18,4,4,0,0,1,7.19,21.35Z" style="fill:#ffc608"/><path d="M34.03,17.44a3.959,3.959,0,0,1-4.06,0,4,4,0,1,1,4.06,0Z" style="fill:#ffc608"/><path d="M59,22a4,4,0,1,1,4-4A4,4,0,0,1,59,22Z" style="fill:#ffc608"/><path d="M48,22.82A2.772,2.772,0,0,1,47,23a2.944,2.944,0,0,1-1.26-.28,3.007,3.007,0,1,1,2.26.1Z" style="fill:#ff9c00"/><path d="M18.26,22.72A2.944,2.944,0,0,1,17,23a2.772,2.772,0,0,1-1-.18,2.992,2.992,0,1,1,2.26-.1Z" style="fill:#ff9c00"/><path d="M25.74,34.78C24.53,36.71,22.98,38,21,38c-1.44,0-3.21-1.41-5-3.42V22.82A2.772,2.772,0,0,0,17,23a2.944,2.944,0,0,0,1.26-.28C19.07,24.89,21.74,31.4,25.74,34.78Z" style="fill:#fa0"/><path d="M48,22.82V34.58C46.21,36.59,44.44,38,43,38c-1.98,0-3.53-1.29-4.74-3.22,4-3.38,6.67-9.89,7.48-12.06A2.944,2.944,0,0,0,47,23,2.772,2.772,0,0,0,48,22.82Z" style="fill:#fa0"/><path d="M34.07,44.78a1.078,1.078,0,0,0,1.71-1.06l-.53-2.58,1.41-1.38A1.029,1.029,0,0,0,35.94,38H33.99l-1.02-2.4a1.084,1.084,0,0,0-1.94,0L30.01,38H28.06a1.029,1.029,0,0,0-.72,1.76l1.41,1.38-.53,2.58a1.078,1.078,0,0,0,1.71,1.06L32,43.26ZM48,34.58c3.9-4.36,7.91-11.57,8.81-13.23A4,4,0,0,0,59,22L51,44v4H13V44L5,22a4,4,0,0,0,2.19-.65c.9,1.66,4.91,8.87,8.81,13.23C17.79,36.59,19.56,38,21,38c1.98,0,3.53-1.29,4.74-3.22,3.27-5.21,4.09-15.14,4.23-17.34a3.959,3.959,0,0,0,4.06,0c.14,2.2.96,12.13,4.23,17.34C39.47,36.71,41.02,38,43,38,44.44,38,46.21,36.59,48,34.58Z" style="fill:#fadf7d"/><path d="M32.97,35.6,33.99,38h1.95a1.029,1.029,0,0,1,.72,1.76l-1.41,1.38.53,2.58a1.078,1.078,0,0,1-1.71,1.06L32,43.26l-2.07,1.52a1.078,1.078,0,0,1-1.71-1.06l.53-2.58-1.41-1.38A1.029,1.029,0,0,1,28.06,38h1.95l1.02-2.4a1.084,1.084,0,0,1,1.94,0Z" style="fill:#d1013e"/><path d="M34.03,15.44a3.959,3.959,0,0,1-4.06,0,3.974,3.974,0,0,1-1.836-2.417A3.919,3.919,0,0,0,29.97,17.44a3.959,3.959,0,0,0,4.06,0,3.919,3.919,0,0,0,1.836-4.417A3.974,3.974,0,0,1,34.03,15.44Z" style="fill:#fa0"/><path d="M61.03,19.44a3.959,3.959,0,0,1-4.06,0,3.974,3.974,0,0,1-1.836-2.417A3.919,3.919,0,0,0,56.97,21.44a3.959,3.959,0,0,0,4.06,0,3.919,3.919,0,0,0,1.836-4.417A3.974,3.974,0,0,1,61.03,19.44Z" style="fill:#fa0"/><path d="M7.03,19.44a3.959,3.959,0,0,1-4.06,0,3.974,3.974,0,0,1-1.836-2.417A3.919,3.919,0,0,0,2.97,21.44a3.959,3.959,0,0,0,4.06,0,3.919,3.919,0,0,0,1.836-4.417A3.974,3.974,0,0,1,7.03,19.44Z" style="fill:#fa0"/><path d="M18.26,20.72A2.944,2.944,0,0,1,17,21a2.772,2.772,0,0,1-1-.18,2.956,2.956,0,0,1-1.821-1.808A3,3,0,0,0,14,20a2.968,2.968,0,0,0,2,2.82A2.772,2.772,0,0,0,17,23a2.944,2.944,0,0,0,1.26-.28,2.957,2.957,0,0,0,1.56-3.711A2.975,2.975,0,0,1,18.26,20.72Z" style="fill:#de8800"/><path d="M48.26,20.72A2.944,2.944,0,0,1,47,21a2.772,2.772,0,0,1-1-.18,2.956,2.956,0,0,1-1.821-1.808A3,3,0,0,0,44,20a2.968,2.968,0,0,0,2,2.82A2.772,2.772,0,0,0,47,23a2.944,2.944,0,0,0,1.26-.28,2.957,2.957,0,0,0,1.56-3.711A2.975,2.975,0,0,1,48.26,20.72Z" style="fill:#de8800"/><path d="M18.014,34.66A1.992,1.992,0,0,1,17,32.918V27a2,2,0,0,1,2-2h.189c-.417-.948-.73-1.746-.929-2.28A2.944,2.944,0,0,1,17,23a2.772,2.772,0,0,1-1-.18V34.58C17.79,36.59,19.56,38,21,38c1.98,0,3.53-1.29,4.74-3.22-.1-.087-.2-.184-.3-.275C22.672,36.732,19.573,35.537,18.014,34.66Z" style="fill:#ff9c00"/><path d="M47,23a2.944,2.944,0,0,1-1.26-.28c-.2.534-.512,1.332-.929,2.28H45a2,2,0,0,1,2,2v5.918a1.992,1.992,0,0,1-1.014,1.742c-1.559.877-4.655,2.065-7.42-.158-.1.092-.2.19-.306.278C39.47,36.71,41.02,38,43,38c1.44,0,3.21-1.41,5-3.42V22.82A2.772,2.772,0,0,1,47,23Z" style="fill:#ff9c00"/><path d="M34.07,44.78,33.008,44H30.992l-1.062.78A1.08,1.08,0,0,1,28.207,44H19a3,3,0,0,1-3-3L7.777,25.468A1,1,0,0,1,8.661,24h.025c-.706-1.211-1.235-2.168-1.5-2.65A4,4,0,0,1,5,22l8,22v4H51V44H35.793A1.08,1.08,0,0,1,34.07,44.78Z" style="fill:#ffbf40"/><circle cx="48" cy="19" r="1" style="fill:#ffc608"/><circle cx="18" cy="19" r="1" style="fill:#ffc608"/><circle cx="33" cy="13" r="1" style="fill:#fffced"/><circle cx="61" cy="17" r="1" style="fill:#fffced"/><circle cx="7" cy="17" r="1" style="fill:#fffced"/><rect x="18" y="47" width="2" height="2"/><path d="M59.727,22.927A4.994,4.994,0,1,0,55.542,21.6,86.339,86.339,0,0,1,49,31.811V23.444a4,4,0,1,0-4.483-.333c-.936,2.35-3.06,7.065-6.021,10.077-2.179-4.314-3.156-11.253-3.438-15.261a5,5,0,1,0-6.116,0c-.281,4.009-1.257,10.949-3.436,15.262-2.962-3.011-5.087-7.727-6.023-10.078A4,4,0,1,0,15,23.444v8.367A86.339,86.339,0,0,1,8.458,21.6a5,5,0,1,0-4.185,1.331L12,44.176v3.008A3,3,0,0,0,10,50v2a3,3,0,0,0,3,3H51a3,3,0,0,0,3-3V50a3,3,0,0,0-2-2.816V44.176ZM59,15a3,3,0,1,1-3,3A3,3,0,0,1,59,15ZM47,18a2,2,0,1,1-2,2A2,2,0,0,1,47,18Zm-.653,5.934A4.014,4.014,0,0,0,47,24V34.224C45.461,35.909,44.05,37,43,37a4.368,4.368,0,0,1-3.427-2.051C42.97,31.7,45.31,26.543,46.347,23.934ZM32,11a3,3,0,1,1-3,3A3,3,0,0,1,32,11ZM17,18a2,2,0,1,1-2,2A2,2,0,0,1,17,18Zm0,6a4.014,4.014,0,0,0,.653-.066c1.037,2.609,3.378,7.765,6.776,11.016A4.373,4.373,0,0,1,21,37c-1.05,0-2.461-1.091-4-2.776ZM2,18a3,3,0,1,1,3,3A3,3,0,0,1,2,18ZM52,52a1,1,0,0,1-1,1H13a1,1,0,0,1-1-1V50a1,1,0,0,1,1-1h3V47H14V44a1,1,0,0,0-.061-.342L6.351,22.791c.138-.039.276-.077.409-.127A63.2,63.2,0,0,0,15,34.955V35h.041c3.387,3.7,5.405,4,5.959,4,3.842,0,6.692-3.791,8.473-11.269a64.226,64.226,0,0,0,1.394-8.872,4.623,4.623,0,0,0,2.266,0,64.226,64.226,0,0,0,1.394,8.872C36.308,35.209,39.158,39,43,39c.554,0,2.572-.3,5.959-4H49v-.045a63.2,63.2,0,0,0,8.24-12.291c.133.05.271.088.409.127L50.061,43.658A1,1,0,0,0,50,44v3H22v2H51a1,1,0,0,1,1,1Z"/><path d="M27.657,41.47l-.419,2.054a2.043,2.043,0,0,0,.91,2.141,2.091,2.091,0,0,0,2.377-.075L32,44.505l1.476,1.085a2.086,2.086,0,0,0,2.376.075,2.043,2.043,0,0,0,.91-2.141l-.419-2.054,1.013-.994A2.028,2.028,0,0,0,35.937,37H34.651l-.79-1.857a2.087,2.087,0,0,0-3.722,0l-.03.062L29.348,37H28.063a2.028,2.028,0,0,0-1.419,3.476ZM30.01,39a1,1,0,0,0,.921-.609l1.02-2.405h.1l1.02,2.405A1,1,0,0,0,33.99,39l1.966.048-1.4,1.375a1,1,0,0,0-.28.914l.5,2.643a.084.084,0,0,1-.113,0l-2.067-1.521a1,1,0,0,0-1.186,0l-2.066,1.521c-.018.012-.054.04-.144-.054l.529-2.588a1,1,0,0,0-.28-.914L28.063,39Z"/></g></svg>